<mxfile host="app.diagrams.net" modified="2024-03-27T18:10:22.244Z" agent="Mozilla/5.0 (Macintosh; Intel Mac OS X 10_15_7) AppleWebKit/537.36 (KHTML, like Gecko) Chrome/123.0.0.0 Safari/537.36" etag="4B7TfkENv1dhuPMZDDf5" version="24.2.0" type="device">
  <diagram name="Page-1" id="Y3nB5YqGW_-TQmfZ_1iD">
    <mxGraphModel dx="1677" dy="2298" grid="1" gridSize="10" guides="1" tooltips="1" connect="1" arrows="1" fold="1" page="1" pageScale="1" pageWidth="850" pageHeight="1100" math="0" shadow="0">
      <root>
        <mxCell id="0" />
        <mxCell id="1" parent="0" />
        <mxCell id="uX9BhRIv3d9W_aYiBByU-3" value="Trgovina automobilima" style="rounded=1;whiteSpace=wrap;html=1;" vertex="1" parent="1">
          <mxGeometry x="420" y="335" width="260" height="130" as="geometry" />
        </mxCell>
        <mxCell id="uX9BhRIv3d9W_aYiBByU-4" value="" style="endArrow=none;html=1;rounded=0;exitX=0;exitY=0.25;exitDx=0;exitDy=0;entryX=1;entryY=0.25;entryDx=0;entryDy=0;" edge="1" parent="1" source="uX9BhRIv3d9W_aYiBByU-3" target="uX9BhRIv3d9W_aYiBByU-3">
          <mxGeometry width="50" height="50" relative="1" as="geometry">
            <mxPoint x="160" y="580" as="sourcePoint" />
            <mxPoint x="210" y="530" as="targetPoint" />
          </mxGeometry>
        </mxCell>
        <mxCell id="uX9BhRIv3d9W_aYiBByU-5" value="P0" style="edgeLabel;html=1;align=center;verticalAlign=middle;resizable=0;points=[];" vertex="1" connectable="0" parent="uX9BhRIv3d9W_aYiBByU-4">
          <mxGeometry x="-0.1308" y="5" relative="1" as="geometry">
            <mxPoint x="17" y="-7" as="offset" />
          </mxGeometry>
        </mxCell>
        <mxCell id="uX9BhRIv3d9W_aYiBByU-6" value="" style="rounded=0;whiteSpace=wrap;html=1;" vertex="1" parent="1">
          <mxGeometry x="90" y="355" width="140" height="90" as="geometry" />
        </mxCell>
        <mxCell id="uX9BhRIv3d9W_aYiBByU-7" value="Kupac" style="rounded=0;whiteSpace=wrap;html=1;" vertex="1" parent="1">
          <mxGeometry x="100" y="365" width="140" height="90" as="geometry" />
        </mxCell>
        <mxCell id="uX9BhRIv3d9W_aYiBByU-9" value="" style="rounded=0;whiteSpace=wrap;html=1;" vertex="1" parent="1">
          <mxGeometry x="440" y="70" width="140" height="90" as="geometry" />
        </mxCell>
        <mxCell id="uX9BhRIv3d9W_aYiBByU-10" value="Prodavač" style="rounded=0;whiteSpace=wrap;html=1;" vertex="1" parent="1">
          <mxGeometry x="450" y="80" width="140" height="90" as="geometry" />
        </mxCell>
        <mxCell id="uX9BhRIv3d9W_aYiBByU-15" style="edgeStyle=orthogonalEdgeStyle;rounded=0;orthogonalLoop=1;jettySize=auto;html=1;exitX=1;exitY=0.25;exitDx=0;exitDy=0;entryX=0;entryY=0.403;entryDx=0;entryDy=0;entryPerimeter=0;" edge="1" parent="1">
          <mxGeometry relative="1" as="geometry">
            <mxPoint x="240" y="440.5" as="sourcePoint" />
            <mxPoint x="420" y="440.3900000000001" as="targetPoint" />
          </mxGeometry>
        </mxCell>
        <mxCell id="uX9BhRIv3d9W_aYiBByU-16" value="kupovina automobila" style="text;html=1;align=center;verticalAlign=middle;resizable=0;points=[];autosize=1;strokeColor=none;fillColor=none;" vertex="1" parent="1">
          <mxGeometry x="250" y="416" width="130" height="30" as="geometry" />
        </mxCell>
        <mxCell id="uX9BhRIv3d9W_aYiBByU-21" style="edgeStyle=orthogonalEdgeStyle;rounded=0;orthogonalLoop=1;jettySize=auto;html=1;exitX=0.201;exitY=1.001;exitDx=0;exitDy=0;entryX=0.227;entryY=0.011;entryDx=0;entryDy=0;entryPerimeter=0;exitPerimeter=0;" edge="1" parent="1" source="uX9BhRIv3d9W_aYiBByU-10" target="uX9BhRIv3d9W_aYiBByU-3">
          <mxGeometry relative="1" as="geometry" />
        </mxCell>
        <mxCell id="uX9BhRIv3d9W_aYiBByU-22" value="&lt;div&gt;ponuda automobila&lt;/div&gt;" style="text;html=1;align=center;verticalAlign=middle;resizable=0;points=[];autosize=1;strokeColor=none;fillColor=none;rotation=-90;" vertex="1" parent="1">
          <mxGeometry x="400" y="245" width="130" height="30" as="geometry" />
        </mxCell>
        <mxCell id="uX9BhRIv3d9W_aYiBByU-23" value="" style="endArrow=classic;html=1;rounded=0;entryX=0.578;entryY=1.021;entryDx=0;entryDy=0;entryPerimeter=0;" edge="1" parent="1" target="uX9BhRIv3d9W_aYiBByU-10">
          <mxGeometry width="50" height="50" relative="1" as="geometry">
            <mxPoint x="530" y="335" as="sourcePoint" />
            <mxPoint x="530" y="230" as="targetPoint" />
          </mxGeometry>
        </mxCell>
        <mxCell id="uX9BhRIv3d9W_aYiBByU-24" value="prikazivanje oglasa" style="text;html=1;align=center;verticalAlign=middle;resizable=0;points=[];autosize=1;strokeColor=none;fillColor=none;rotation=-90;" vertex="1" parent="1">
          <mxGeometry x="450" y="245" width="130" height="30" as="geometry" />
        </mxCell>
        <mxCell id="uX9BhRIv3d9W_aYiBByU-25" value="" style="endArrow=classic;html=1;rounded=0;exitX=0;exitY=0.75;exitDx=0;exitDy=0;entryX=1;entryY=0.75;entryDx=0;entryDy=0;" edge="1" parent="1">
          <mxGeometry width="50" height="50" relative="1" as="geometry">
            <mxPoint x="420" y="395.5" as="sourcePoint" />
            <mxPoint x="240" y="395.5" as="targetPoint" />
          </mxGeometry>
        </mxCell>
        <mxCell id="uX9BhRIv3d9W_aYiBByU-26" value="pregled dostupnih automobila" style="text;html=1;align=center;verticalAlign=middle;resizable=0;points=[];autosize=1;strokeColor=none;fillColor=none;" vertex="1" parent="1">
          <mxGeometry x="242" y="370" width="180" height="30" as="geometry" />
        </mxCell>
        <mxCell id="uX9BhRIv3d9W_aYiBByU-27" value="" style="endArrow=classic;html=1;rounded=0;entryX=0.578;entryY=1.021;entryDx=0;entryDy=0;entryPerimeter=0;" edge="1" parent="1">
          <mxGeometry width="50" height="50" relative="1" as="geometry">
            <mxPoint x="570" y="335" as="sourcePoint" />
            <mxPoint x="571" y="172" as="targetPoint" />
          </mxGeometry>
        </mxCell>
        <mxCell id="uX9BhRIv3d9W_aYiBByU-28" value="narudžbe" style="text;html=1;align=center;verticalAlign=middle;resizable=0;points=[];autosize=1;strokeColor=none;fillColor=none;rotation=-90;" vertex="1" parent="1">
          <mxGeometry x="520" y="245" width="70" height="30" as="geometry" />
        </mxCell>
        <mxCell id="uX9BhRIv3d9W_aYiBByU-29" value="Text" style="text;html=1;align=center;verticalAlign=middle;resizable=0;points=[];autosize=1;strokeColor=none;fillColor=none;" vertex="1" parent="1">
          <mxGeometry x="1175" y="-92" width="50" height="30" as="geometry" />
        </mxCell>
      </root>
    </mxGraphModel>
  </diagram>
</mxfile>
